<svg width="1180" height="320" viewBox="0 0 1180 320" fill="none" xmlns="http://www.w3.org/2000/svg" role="img" aria-labelledby="title desc">
  <title id="title">Nergora Wordmark</title>
  <desc id="desc">Nergora logo mark with wordmark.</desc>
  <defs>
    <linearGradient id="bg" x1="30" y1="36" x2="246" y2="284" gradientUnits="userSpaceOnUse">
      <stop stop-color="#A855F7"/>
      <stop offset="0.52" stop-color="#7C3AED"/>
      <stop offset="1" stop-color="#312E81"/>
    </linearGradient>
    <linearGradient id="mark" x1="85" y1="70" x2="195" y2="236" gradientUnits="userSpaceOnUse">
      <stop stop-color="#FFFFFF"/>
      <stop offset="0.45" stop-color="#E4E4E7"/>
      <stop offset="1" stop-color="#94A3B8"/>
    </linearGradient>
    <linearGradient id="shadow" x1="116" y1="136" x2="178" y2="242" gradientUnits="userSpaceOnUse">
      <stop stop-color="#0F172A" stop-opacity="0.15"/>
      <stop offset="1" stop-color="#0F172A" stop-opacity="0.55"/>
    </linearGradient>
  </defs>

  <rect x="32" y="40" width="240" height="240" rx="58" fill="url(#bg)"/>
  <path d="M84 84H134L222 236H172L84 84Z" fill="url(#mark)"/>
  <path d="M172 84H222V236H182V156L172 140V84Z" fill="url(#mark)"/>
  <path d="M84 236V84H124V164L134 180V236H84Z" fill="url(#shadow)"/>
  <path d="M84 84H134L150 111H100L84 84Z" fill="#FFFFFF" fill-opacity="0.72"/>
  <path d="M172 84H222L206 111H172V84Z" fill="#FFFFFF" fill-opacity="0.7"/>
  <path d="M182 209H222L206 236H172L182 209Z" fill="#CBD5E1" fill-opacity="0.82"/>

  <text x="324" y="147" fill="#FAFAFA" font-family="Inter, Geist, Arial, sans-serif" font-size="82" font-weight="760" letter-spacing="-2.5">Nergora</text>
  <text x="328" y="207" fill="#A1A1AA" font-family="Inter, Geist, Arial, sans-serif" font-size="34" font-weight="500" letter-spacing="5">LABS</text>
</svg>
