<svg width="512" height="512" viewBox="0 0 512 512" fill="none" xmlns="http://www.w3.org/2000/svg" role="img" aria-labelledby="title desc">
  <title id="title">Nergora Logo</title>
  <desc id="desc">A corporate angular N monogram for Nergora.</desc>
  <defs>
    <linearGradient id="bg" x1="96" y1="64" x2="416" y2="448" gradientUnits="userSpaceOnUse">
      <stop stop-color="#A855F7"/>
      <stop offset="0.52" stop-color="#7C3AED"/>
      <stop offset="1" stop-color="#312E81"/>
    </linearGradient>
    <linearGradient id="mark" x1="154" y1="118" x2="358" y2="392" gradientUnits="userSpaceOnUse">
      <stop stop-color="#FFFFFF"/>
      <stop offset="0.45" stop-color="#E4E4E7"/>
      <stop offset="1" stop-color="#94A3B8"/>
    </linearGradient>
    <linearGradient id="shadow" x1="202" y1="246" x2="310" y2="400" gradientUnits="userSpaceOnUse">
      <stop stop-color="#0F172A" stop-opacity="0.15"/>
      <stop offset="1" stop-color="#0F172A" stop-opacity="0.55"/>
    </linearGradient>
    <filter id="softShadow" x="56" y="56" width="400" height="424" filterUnits="userSpaceOnUse" color-interpolation-filters="sRGB">
      <feDropShadow dx="0" dy="20" stdDeviation="18" flood-color="#000000" flood-opacity="0.32"/>
    </filter>
  </defs>

  <rect x="56" y="56" width="400" height="400" rx="96" fill="url(#bg)"/>
  <g filter="url(#softShadow)">
    <path d="M142 130H224L370 382H288L142 130Z" fill="url(#mark)"/>
    <path d="M288 130H370V382H303V249L288 223V130Z" fill="url(#mark)"/>
    <path d="M142 382V130H209V263L224 289V382H142Z" fill="url(#shadow)"/>
    <path d="M142 130H224L250 175H168L142 130Z" fill="#FFFFFF" fill-opacity="0.72"/>
    <path d="M288 130H370L344 175H288V130Z" fill="#FFFFFF" fill-opacity="0.7"/>
    <path d="M303 337H370L344 382H288L303 337Z" fill="#CBD5E1" fill-opacity="0.82"/>
  </g>
</svg>
